<?xml version="1.0" encoding="UTF-8"?>
<svg version="1.1" xmlns="http://www.w3.org/2000/svg" width="377" height="376">
<path d="M0 0 C1.28902725 -0.00149551 1.28902725 -0.00149551 2.60409546 -0.00302124 C28.68832269 0.00041135 28.68832269 0.00041135 33.0625 2.1875 C33.3925 1.5275 33.7225 0.8675 34.0625 0.1875 C35.0525 0.8475 36.0425 1.5075 37.0625 2.1875 C37.3925 1.5275 37.7225 0.8675 38.0625 0.1875 C38.0625 0.8475 38.0625 1.5075 38.0625 2.1875 C40.0425 2.1875 42.0225 2.1875 44.0625 2.1875 C44.0625 2.8475 44.0625 3.5075 44.0625 4.1875 C44.7225 4.1875 45.3825 4.1875 46.0625 4.1875 C46.3925 3.5275 46.7225 2.8675 47.0625 2.1875 C47.0625 2.8475 47.0625 3.5075 47.0625 4.1875 C49.0425 4.1875 51.0225 4.1875 53.0625 4.1875 C54.36902724 6.80055449 54.18664766 8.70644238 54.18554783 11.63418007 C54.18753888 12.79813289 54.18952993 13.96208572 54.19158131 15.16130984 C54.18866847 16.45116994 54.18575563 17.74103004 54.18275452 19.06997681 C54.18319023 20.44526164 54.18406515 21.82054639 54.18534368 23.1958307 C54.18758855 26.98804661 54.18356746 30.78023449 54.17856562 34.57244682 C54.1742612 38.65697608 54.17570754 42.74150366 54.1764679 46.82603455 C54.17699314 53.90709434 54.17384633 60.98814494 54.16823006 68.06920242 C54.16011507 78.30731788 54.15749984 88.54542888 54.15624207 98.78354721 C54.15405154 115.39281003 54.14739145 132.00206796 54.13793945 148.61132812 C54.12876534 164.74902319 54.1216845 180.88671692 54.11743164 197.02441406 C54.11703756 198.51563018 54.11703756 198.51563018 54.11663551 200.03697188 C54.1153305 205.02412633 54.11406679 210.01128079 54.11282361 214.99843526 C54.10245099 256.39479362 54.08475851 297.79114645 54.0625 339.1875 C48.4525 339.1875 42.8425 339.1875 37.0625 339.1875 C37.07297363 337.13660156 37.08344727 335.08570313 37.09423828 332.97265625 C37.27441905 295.35668953 37.42437227 257.80598938 35.3359375 220.23388672 C35.10714732 216.0992788 34.91128145 211.96404708 34.72979736 207.82711792 C33.82056363 187.12841458 31.86426327 166.71745093 29.0625 146.1875 C28.94656494 146.95416992 28.83062988 147.72083984 28.71118164 148.51074219 C28.18442818 151.98663057 27.65474696 155.46206664 27.125 158.9375 C26.94259766 160.1440625 26.76019531 161.350625 26.57226562 162.59375 C26.39501953 163.75390625 26.21777344 164.9140625 26.03515625 166.109375 C25.87281494 167.17768555 25.71047363 168.24599609 25.54321289 169.34667969 C25.14978634 171.67167274 24.67893285 173.91365433 24.0625 176.1875 C23.4025 176.1875 22.7425 176.1875 22.0625 176.1875 C21.92714844 174.99640625 21.79179687 173.8053125 21.65234375 172.578125 C16.70885039 132.38449736 1.76883945 94.83880295 -15.375 58.4375 C-15.76365234 57.61056641 -16.15230469 56.78363281 -16.55273438 55.93164062 C-19.02374432 50.7890379 -21.81136803 45.95969623 -24.9375 41.1875 C-25.25912109 41.6501123 -25.58074219 42.11272461 -25.91210938 42.58935547 C-34.00087197 54.20036454 -42.23402426 65.36688367 -51.796875 75.82421875 C-53.66602907 77.88779213 -55.46073362 79.99264613 -57.25 82.125 C-79.63551857 107.67924494 -110.46370986 126.02329409 -139.953125 142.09912109 C-141.77854799 143.10031889 -143.59297307 144.12150001 -145.40625 145.14453125 C-146.3859375 145.69496094 -147.365625 146.24539062 -148.375 146.8125 C-149.19871094 147.27914062 -150.02242187 147.74578125 -150.87109375 148.2265625 C-152.9375 149.1875 -152.9375 149.1875 -155.9375 149.1875 C-155.1640625 148.48625 -154.390625 147.785 -153.59375 147.0625 C-143.9453347 138.28867137 -135.04180834 129.44849204 -126.9375 119.1875 C-126.51645996 118.65930664 -126.09541992 118.13111328 -125.66162109 117.58691406 C-120.22158452 110.74975408 -115.19029228 103.84598366 -110.9375 96.1875 C-111.783125 97.115625 -112.62875 98.04375 -113.5 99 C-124.81862024 110.31862024 -139.54928527 119.41473949 -153.9375 126.1875 C-151.27190687 127.96456209 -148.9094385 129.06298273 -145.9375 130.1875 C-146.5975 130.8475 -147.2575 131.5075 -147.9375 132.1875 C-148.58654297 131.90205322 -149.23558594 131.61660645 -149.90429688 131.32250977 C-154.24567068 129.73532014 -157.47769325 128.77223414 -162.01171875 130.06201172 C-165.25800401 131.60543727 -168.33952919 133.30232883 -171.4375 135.125 C-172.48808594 135.70830078 -173.53867188 136.29160156 -174.62109375 136.89257812 C-176.70990458 138.05575399 -178.79087532 139.23313424 -180.86328125 140.42529297 C-185.51240067 143.09026628 -190.22465639 145.63743976 -194.9375 148.1875 C-192.83899842 150.28600158 -188.52214158 149.85033122 -185.625 150.125 C-184.75721924 150.21072266 -183.88943848 150.29644531 -182.99536133 150.38476562 C-177.54329439 150.90432613 -172.0895583 151.32629259 -166.625 151.69140625 C-164.76161987 151.8162439 -164.76161987 151.8162439 -162.8605957 151.94360352 C-160.40647761 152.10383252 -157.95187861 152.25688791 -155.49682617 152.40209961 C-149.69684963 152.77641067 -144.43559102 153.26116154 -138.9375 155.1875 C-142.45905964 157.53520643 -144.44521843 157.56419614 -148.625 157.8125 C-149.80449219 157.88726562 -150.98398438 157.96203125 -152.19921875 158.0390625 C-153.10285156 158.08804688 -154.00648438 158.13703125 -154.9375 158.1875 C-154.504375 159.08275391 -154.504375 159.08275391 -154.0625 159.99609375 C-149.05335477 171.70149216 -149.43487942 184.39724006 -153.67578125 196.31640625 C-157.5125506 205.04713527 -162.90447373 210.67608632 -170.625 216.0625 C-175.7929163 217.81764138 -180.55557533 218.15511638 -185.9375 217.1875 C-192.52183204 213.76748287 -195.6838736 208.02653966 -197.9375 201.1875 C-200.67989891 192.27470355 -199.41102374 180.64380237 -195.609375 172.2578125 C-192.99584478 167.38714254 -190.11497475 162.70929099 -186.9375 158.1875 C-190.2375 158.1875 -193.5375 158.1875 -196.9375 158.1875 C-197.2675 157.1975 -197.5975 156.2075 -197.9375 155.1875 C-196.9475 154.8575 -195.9575 154.5275 -194.9375 154.1875 C-195.5975 153.1975 -196.2575 152.2075 -196.9375 151.1875 C-202.6558302 151.62737155 -207.54258077 153.51345936 -211.9375 157.1875 C-213.88097624 160.68885089 -214.73081882 164.30219391 -215.625 168.1875 C-216.18839484 170.36338674 -216.75220429 172.53916616 -217.31640625 174.71484375 C-217.58598145 175.80522949 -217.85555664 176.89561523 -218.13330078 178.01904297 C-219.08859776 181.78280866 -220.18614752 185.49187222 -221.30200195 189.21044922 C-223.20112673 195.55224568 -224.91684197 201.86756774 -226.2109375 208.36328125 C-226.41831543 209.39702881 -226.62569336 210.43077637 -226.83935547 211.49584961 C-227.22654896 213.48096693 -227.59409441 215.47006011 -227.93798828 217.46313477 C-229.54913057 225.80416811 -233.34720317 230.37264124 -239.9375 235.5625 C-247.3337173 241.89006233 -255.311789 253.4693609 -256.9375 263.1875 C-258.50008919 283.80855406 -251.16843999 301.41255752 -237.875 316.96484375 C-237.235625 317.69832031 -236.59625 318.43179687 -235.9375 319.1875 C-235.07125 320.30318359 -235.07125 320.30318359 -234.1875 321.44140625 C-229.03273058 327.82932095 -222.80416347 331.88392407 -215.9375 336.21875 C-214.9475 336.8684375 -213.9575 337.518125 -212.9375 338.1875 C-212.9375 338.5175 -212.9375 338.8475 -212.9375 339.1875 C-241.9775 339.1875 -271.0175 339.1875 -300.9375 339.1875 C-301.02 330.6075 -301.1025 322.0275 -301.1875 313.1875 C-301.22391602 310.53460938 -301.26033203 307.88171875 -301.29785156 305.1484375 C-301.40375714 291.58812425 -300.39774104 278.86724192 -297.88623047 265.54736328 C-296.52778463 258.25408517 -296.16613522 251.03081029 -295.875 243.625 C-295.7363911 240.79493768 -295.58337042 237.96578269 -295.42578125 235.13671875 C-295.38797546 234.45187408 -295.35016968 233.76702942 -295.31121826 233.06143188 C-294.7487715 223.35842085 -293.47870158 213.77799336 -291.9375 204.1875 C-291.73302246 202.88329102 -291.73302246 202.88329102 -291.52441406 201.55273438 C-283.5469191 151.91908209 -259.12932699 104.3019892 -218.9375 73.1875 C-217.84161031 72.27364286 -216.74935382 71.3554168 -215.66015625 70.43359375 C-205.44122068 61.86378686 -194.45407935 54.88358356 -182.9375 48.1875 C-182.17421387 47.73584473 -181.41092773 47.28418945 -180.62451172 46.81884766 C-162.23270397 36.06503522 -141.9535702 28.82143798 -122.17425537 21.06774902 C-120.1532964 20.27242416 -118.13679356 19.46697409 -116.12158203 18.65722656 C-109.75035753 16.13114107 -103.50881128 14.13531548 -96.8125 12.6875 C-94.9890767 12.2756743 -93.16616857 11.86156179 -91.34375 11.4453125 C-89.98830078 11.1364209 -89.98830078 11.1364209 -88.60546875 10.82128906 C-85.26760271 10.02836261 -81.96641728 9.12635693 -78.66064453 8.21020508 C-52.93631525 1.11448397 -26.55647706 0.00820667 0 0 Z M-167.9375 42.1875 C-168.2675 42.8475 -168.5975 43.5075 -168.9375 44.1875 C-167.9475 43.8575 -166.9575 43.5275 -165.9375 43.1875 C-166.5975 42.8575 -167.2575 42.5275 -167.9375 42.1875 Z M-170.9375 44.1875 C-172.84942734 44.90833923 -172.84942734 44.90833923 -174.9453125 46.109375 C-175.75919434 46.55216797 -176.57307617 46.99496094 -177.41162109 47.45117188 C-178.72380615 48.1869043 -178.72380615 48.1869043 -180.0625 48.9375 C-180.96178223 49.43830078 -181.86106445 49.93910156 -182.78759766 50.45507812 C-201.12799468 60.8277394 -217.69647258 73.6828619 -232.9375 88.1875 C-233.99517578 89.16589844 -233.99517578 89.16589844 -235.07421875 90.1640625 C-269.31188031 122.8044295 -285.6974807 169.92539292 -291.625 215.6875 C-291.75680664 216.70328125 -291.88861328 217.7190625 -292.02441406 218.765625 C-292.70185944 224.28744393 -293.07656623 229.62485096 -292.9375 235.1875 C-291.33608784 232.26426063 -290.47830747 229.60847937 -289.81640625 226.34765625 C-286.14758241 209.25404561 -280.52062694 193.36277972 -273.9375 177.1875 C-273.33518555 175.69331543 -273.33518555 175.69331543 -272.72070312 174.16894531 C-265.45909665 156.26318917 -256.89245662 139.12955259 -245.9375 123.1875 C-245.5353125 122.60129883 -245.133125 122.01509766 -244.71875 121.41113281 C-239.1548228 113.35647883 -233.2589249 105.66768037 -226.9375 98.1875 C-226.04780111 97.1109877 -225.15849587 96.03414998 -224.26953125 94.95703125 C-213.36001813 81.85700323 -201.48602017 69.57211073 -187.9375 59.1875 C-186.81974609 58.31452683 -185.70258889 57.44078926 -184.5859375 56.56640625 C-179.47938735 52.58900366 -174.35713319 48.72767893 -168.9375 45.1875 C-169.9275 44.6925 -169.9275 44.6925 -170.9375 44.1875 Z M-162.9375 160.1875 C-162.9375 161.8375 -162.9375 163.4875 -162.9375 165.1875 C-162.2775 164.8575 -161.6175 164.5275 -160.9375 164.1875 C-161.5975 162.8675 -162.2575 161.5475 -162.9375 160.1875 Z M-175.9375 162.1875 C-175.9375 165.1875 -175.9375 165.1875 -175.9375 165.1875 Z M-180.9375 164.1875 C-179.9375 166.1875 -179.9375 166.1875 -179.9375 166.1875 Z M-181.9375 166.1875 C-181.9375 169.1875 -181.9375 169.1875 -181.9375 169.1875 Z M-161.9375 173.1875 C-161.9375 175.1675 -161.9375 177.1475 -161.9375 179.1875 C-161.2775 179.1875 -160.6175 179.1875 -159.9375 179.1875 C-160.2675 177.2075 -160.5975 175.2275 -160.9375 173.1875 C-161.2675 173.1875 -161.5975 173.1875 -161.9375 173.1875 Z M-183.9375 174.1875 C-186.26616229 176.07596183 -186.26616229 176.07596183 -186.1328125 179.2265625 C-186.10960937 180.40992188 -186.08640625 181.59328125 -186.0625 182.8125 C-186.04445313 184.00101563 -186.02640625 185.18953125 -186.0078125 186.4140625 C-185.98460937 187.32929688 -185.96140625 188.24453125 -185.9375 189.1875 C-184.02447693 185.92136305 -183.58075339 183.19304752 -183.3125 179.4375 C-183.23773438 178.45265625 -183.16296875 177.4678125 -183.0859375 176.453125 C-183.03695312 175.70546875 -182.98796875 174.9578125 -182.9375 174.1875 C-183.2675 174.1875 -183.5975 174.1875 -183.9375 174.1875 Z M-169.9375 175.1875 C-169.9375 177.8275 -169.9375 180.4675 -169.9375 183.1875 C-169.6075 183.1875 -169.2775 183.1875 -168.9375 183.1875 C-168.6075 180.5475 -168.2775 177.9075 -167.9375 175.1875 C-168.5975 175.1875 -169.2575 175.1875 -169.9375 175.1875 Z M-181.9375 178.1875 C-181.9375 183.4675 -181.9375 188.7475 -181.9375 194.1875 C-181.6075 194.1875 -181.2775 194.1875 -180.9375 194.1875 C-180.6075 188.9075 -180.2775 183.6275 -179.9375 178.1875 C-180.5975 178.1875 -181.2575 178.1875 -181.9375 178.1875 Z M-193.9375 184.1875 C-196.16291672 188.63833345 -195.41029612 194.71001213 -193.9375 199.3125 C-193.4425 200.240625 -193.4425 200.240625 -192.9375 201.1875 C-191.70645845 197.50349416 -192.02982748 194.27275024 -192.375 190.4375 C-192.47683594 189.26703125 -192.57867187 188.0965625 -192.68359375 186.890625 C-192.76738281 185.99859375 -192.85117188 185.1065625 -192.9375 184.1875 C-193.2675 184.1875 -193.5975 184.1875 -193.9375 184.1875 Z M-190.9375 186.1875 C-190.9375 189.1575 -190.9375 192.1275 -190.9375 195.1875 C-190.6075 195.1875 -190.2775 195.1875 -189.9375 195.1875 C-189.9375 192.2175 -189.9375 189.2475 -189.9375 186.1875 C-190.2675 186.1875 -190.5975 186.1875 -190.9375 186.1875 Z M-177.9375 186.1875 C-177.9375 189.1575 -177.9375 192.1275 -177.9375 195.1875 C-177.2775 195.1875 -176.6175 195.1875 -175.9375 195.1875 C-176.2675 192.2175 -176.5975 189.2475 -176.9375 186.1875 C-177.2675 186.1875 -177.5975 186.1875 -177.9375 186.1875 Z M-162.9375 188.1875 C-163.25203125 188.86296875 -163.5665625 189.5384375 -163.890625 190.234375 C-166.13099135 194.90405426 -168.02479989 198.69401776 -171.9375 202.1875 C-172.2675 203.1775 -172.5975 204.1675 -172.9375 205.1875 C-167.77647208 203.08278579 -165.51197496 198.94589489 -162.9375 194.1875 C-161.99678454 190.84055215 -161.99678454 190.84055215 -161.9375 188.1875 C-162.2675 188.1875 -162.5975 188.1875 -162.9375 188.1875 Z M-162.9375 197.1875 C-161.9375 199.1875 -161.9375 199.1875 -161.9375 199.1875 Z M-189.9375 198.1875 C-188.9375 200.1875 -188.9375 200.1875 -188.9375 200.1875 Z M-185.9375 199.1875 C-184.9475 200.6725 -184.9475 200.6725 -183.9375 202.1875 C-182.6175 201.8575 -181.2975 201.5275 -179.9375 201.1875 C-181.9175 200.5275 -183.8975 199.8675 -185.9375 199.1875 Z M-188.9375 200.1875 C-188.66715366 202.62467258 -188.66715366 202.62467258 -187.9375 205.1875 C-184.5022952 207.47763653 -182.952169 207.36592973 -178.9375 207.1875 C-179.2675 206.1975 -179.5975 205.2075 -179.9375 204.1875 C-183.35918849 202.51868065 -183.35918849 202.51868065 -186.9375 201.1875 C-187.5975 200.8575 -188.2575 200.5275 -188.9375 200.1875 Z M-164.9375 200.1875 C-163.9375 202.1875 -163.9375 202.1875 -163.9375 202.1875 Z M-192.9375 206.1875 C-192.6075 207.1775 -192.2775 208.1675 -191.9375 209.1875 C-191.9375 208.1975 -191.9375 207.2075 -191.9375 206.1875 C-192.2675 206.1875 -192.5975 206.1875 -192.9375 206.1875 Z M-170.9375 206.1875 C-171.2675 206.8475 -171.5975 207.5075 -171.9375 208.1875 C-170.9475 207.8575 -169.9575 207.5275 -168.9375 207.1875 C-169.5975 206.8575 -170.2575 206.5275 -170.9375 206.1875 Z M-188.9375 207.1875 C-186.76427119 209.77865742 -185.30923066 211.06628348 -182.0625 212.125 C-178.26159608 212.20101808 -176.16832514 211.1106102 -172.9375 209.1875 C-175.13421613 207.8495813 -175.13421613 207.8495813 -178.6875 208.75 C-182.58742275 209.31933179 -185.27056176 208.74594875 -188.9375 207.1875 Z " fill="#000000" transform="translate(322.9375,36.8125)"/>
<path d="M0 0 C-15.19458457 8.89900903 -33.07317565 17.59318855 -51 18 C-51.99 17.67 -52.98 17.34 -54 17 C-54 16.34 -54 15.68 -54 15 C-52.58074219 14.88785156 -52.58074219 14.88785156 -51.1328125 14.7734375 C-35.77296477 13.33720222 -22.0861227 8.45722137 -8.39282227 1.45263672 C-3.30548046 -1.10182682 -3.30548046 -1.10182682 0 0 Z " fill="#000000" transform="translate(304,149)"/>
<path d="M0 0 C13.15932013 -0.0945458 26.24142121 -0.16332906 39.37109375 0.77734375 C49.88475746 1.39579456 60.4729938 1.0756334 71 1 C71 1.66 71 2.32 71 3 C68.09996873 4.62332428 65.75429294 5.32053986 62.453125 5.6328125 C61.18662109 5.75849609 61.18662109 5.75849609 59.89453125 5.88671875 C59.02183594 5.96535156 58.14914062 6.04398438 57.25 6.125 C56.36183594 6.21136719 55.47367187 6.29773438 54.55859375 6.38671875 C52.37297064 6.59823066 50.18691762 6.80240227 48 7 C48.22034912 7.61319092 48.44069824 8.22638184 48.66772461 8.8581543 C53.77978567 23.49716455 52.74849575 38.3600038 46.3125 52.375 C42.88053682 58.77676673 38.03670325 65.36438893 31 68 C23.98530672 68.82068456 16.56595911 69.29291133 10.68359375 64.890625 C1.89537381 55.02171908 1.15492104 42.73733063 1.76904297 30.22363281 C2.60793129 22.14689411 7.05442383 15.21729576 12 9 C10.84371094 9.03480469 10.84371094 9.03480469 9.6640625 9.0703125 C8.66117187 9.08835938 7.65828125 9.10640625 6.625 9.125 C5.62726563 9.14820313 4.62953125 9.17140625 3.6015625 9.1953125 C1 9 1 9 -1 7 C-0.01 6.67 0.98 6.34 2 6 C1.34 4.02 0.68 2.04 0 0 Z M41 8 C42.98 10.97 42.98 10.97 45 14 C45.33 13.01 45.66 12.02 46 11 C44.62514468 9.45833358 44.62514468 9.45833358 43 8 C42.34 8 41.68 8 41 8 Z M35 10 C36.32 17.26 37.64 24.52 39 32 C39.33 32 39.66 32 40 32 C40.24123181 25.58055339 40.32739613 19.08607865 38 13 C37.01 12.01 36.02 11.02 35 10 Z M16 17 C14.02905192 21.92737019 13.8200072 25.78020872 14 31 C15.79275866 27.88089144 16.34290718 25.32317572 16.625 21.75 C16.69976562 20.85796875 16.77453125 19.9659375 16.8515625 19.046875 C16.90054687 18.37140625 16.94953125 17.6959375 17 17 C16.67 17 16.34 17 16 17 Z M7 27 C6.67 28.65 6.34 30.3 6 32 C6.66 31.34 7.32 30.68 8 30 C7.67 29.01 7.34 28.02 7 27 Z M26 37 C25.34 40.63 24.68 44.26 24 48 C24.66 47.67 25.32 47.34 26 47 C27.1577506 43.52674819 27.06866652 40.63932552 27 37 C26.67 37 26.34 37 26 37 Z M36 41 C37 43 37 43 37 43 Z M14 46 C14.45822468 49.46941546 14.89131683 52.67395049 16 56 C16.66 55.67 17.32 55.34 18 55 C17.01 52.03 16.02 49.06 15 46 C14.67 46 14.34 46 14 46 Z M35 48 C33.36323743 49.9600281 33.36323743 49.9600281 32 52 C32.33 52.66 32.66 53.32 33 54 C34.37562854 52.71034824 35.70766393 51.37310707 37 50 C37 49.34 37 48.68 37 48 C36.34 48 35.68 48 35 48 Z M37 52 C33.04 55.465 33.04 55.465 29 59 C29.33 59.66 29.66 60.32 30 61 C32.64 58.69 35.28 56.38 38 54 C37.67 53.34 37.34 52.68 37 52 Z M25 53 C26 55 26 55 26 55 Z " fill="#000000" transform="translate(267,185)"/>
<path d="M0 0 C0.66 0 1.32 0 2 0 C2.43699219 1.63195312 2.43699219 1.63195312 2.8828125 3.296875 C5.16585927 11.56678738 7.67406901 19.10819986 11.765625 26.6796875 C13 29 13 29 14 32 C10.3392481 30.77974937 10.07660559 29.873509 8.3125 26.5625 C7.87550781 25.75941406 7.43851562 24.95632813 6.98828125 24.12890625 C6 22 6 22 6 20 C0.19343309 18.6747676 -5.50710612 18.8091528 -11.4375 18.8125 C-12.60007324 18.81185547 -13.76264648 18.81121094 -14.96044922 18.81054688 C-23.14214909 18.86081846 -30.9646234 19.36370513 -39 21 C-35.32305517 16.61900721 -30.42376048 16.59996616 -25 16 C-20.49483741 15.76764396 -16.01000057 15.76381249 -11.5 15.8125 C-10.3346875 15.81314453 -9.169375 15.81378906 -7.96875 15.81445312 C0.57688492 15.85896164 0.57688492 15.85896164 4 17 C3.71125 16.10796875 3.4225 15.2159375 3.125 14.296875 C2.75375 13.12640625 2.3825 11.9559375 2 10.75 C1.62875 9.58984375 1.2575 8.4296875 0.875 7.234375 C0 4 0 4 0 0 Z " fill="#000000" transform="translate(254,294)"/>
</svg>
